<svg width="20" height="15" viewBox="0 0 20 15" fill="none" xmlns="http://www.w3.org/2000/svg">
<path d="M20 12.2222C20 12.8116 19.7659 13.3768 19.3491 13.7936C18.9324 14.2103 18.3671 14.4444 17.7778 14.4444H2.22222C1.63285 14.4444 1.06762 14.2103 0.650874 13.7936C0.234126 13.3768 0 12.8116 0 12.2222V2.22222C0 1.63285 0.234126 1.06762 0.650874 0.650874C1.06762 0.234126 1.63285 0 2.22222 0H17.7778C18.3671 0 18.9324 0.234126 19.3491 0.650874C19.7659 1.06762 20 1.63285 20 2.22222V12.2222Z" fill="#006600"/>
<path d="M17.7779 0H8.3335V14.4444H17.7779C18.3673 14.4444 18.9325 14.2103 19.3493 13.7936C19.766 13.3768 20.0002 12.8116 20.0002 12.2222V2.22222C20.0002 1.63285 19.766 1.06762 19.3493 0.650874C18.9325 0.234126 18.3673 0 17.7779 0Z" fill="#D52B1E"/>
<path d="M8.33336 2.77777C7.15462 2.77777 6.02416 3.24602 5.19066 4.07952C4.35717 4.91301 3.88892 6.04348 3.88892 7.22222C3.88892 8.40096 4.35717 9.53142 5.19066 10.3649C6.02416 11.1984 7.15462 11.6667 8.33336 11.6667C9.5121 11.6667 10.6426 11.1984 11.4761 10.3649C12.3096 9.53142 12.7778 8.40096 12.7778 7.22222C12.7778 6.04348 12.3096 4.91301 11.4761 4.07952C10.6426 3.24602 9.5121 2.77777 8.33336 2.77777ZM4.93725 5.32999L5.82725 6.21999L4.46058 6.90333C4.50469 6.35075 4.66726 5.81414 4.93725 5.32999ZM4.46058 7.54055L6.90503 8.76666L5.40169 9.76888L5.40947 9.78055C4.86052 9.15535 4.52776 8.36983 4.46058 7.54055ZM7.77781 11.0667C7.26853 10.994 6.77893 10.8202 6.33781 10.5555H7.77781V11.0667ZM7.77781 9.99999H6.05614L7.77781 8.85222V9.99999ZM7.77781 8.18444L7.44058 8.40944L5.06558 7.22222L6.24114 6.63444L7.77781 8.17055V8.18444ZM7.77781 7.38499L5.80947 5.41666L7.77781 5.74444V7.38499ZM7.77781 5.16722L5.31558 4.7711C5.93168 4.01328 6.81094 3.51572 7.77781 3.37777V5.16722ZM11.7295 5.32999C11.9995 5.81431 12.1621 6.35111 12.2061 6.90388L10.8395 6.22055L11.7295 5.32999ZM8.88892 3.37777C9.85571 3.51593 10.7349 4.01345 11.3511 4.7711L8.88892 5.16722V3.37777ZM8.88892 5.74444L10.8572 5.4161L8.88892 7.38499V5.74444ZM8.88892 8.17055L10.425 6.63444L11.6011 7.22222L9.22669 8.40944L8.88892 8.18444V8.17055ZM8.88892 11.0667V10.5555H10.3289C9.88779 10.8202 9.39819 10.994 8.88892 11.0667ZM8.88892 9.99999V8.85222L10.6106 9.99999H8.88892ZM11.2578 9.78055L11.2656 9.76888L9.76225 8.76666L12.2067 7.54055C12.139 8.36971 11.8063 9.15508 11.2578 9.78055Z" fill="#FFCC4D"/>
<path d="M6.11108 4.44446V8.33335C6.11108 8.92272 6.34521 9.48795 6.76196 9.9047C7.17871 10.3214 7.74394 10.5556 8.33331 10.5556C8.92268 10.5556 9.48791 10.3214 9.90465 9.9047C10.3214 9.48795 10.5555 8.92272 10.5555 8.33335V4.44446H6.11108Z" fill="#D52B1E"/>
<path d="M6.66675 5.00006V8.33339C6.66675 8.77542 6.84234 9.19935 7.1549 9.51191C7.46746 9.82447 7.89139 10.0001 8.33341 10.0001C8.77544 10.0001 9.19937 9.82447 9.51193 9.51191C9.82449 9.19935 10.0001 8.77542 10.0001 8.33339V5.00006H6.66675Z" fill="white"/>
<path d="M7.22217 6.66663H9.44439V7.77774H7.22217V6.66663Z" fill="#829ACD"/>
<path d="M7.77783 6.11108H8.88894V8.33331H7.77783V6.11108Z" fill="#829ACD"/>
<path d="M6.66675 6.66673H7.2223V7.77784H6.66675V6.66673ZM7.77786 6.66673H8.88897V7.77784H7.77786V6.66673ZM9.44453 6.66673H10.0001V7.77784H9.44453V6.66673ZM7.77786 8.33339H8.88897V9.44451H7.77786V8.33339ZM7.77786 5.00006H8.88897V6.11117H7.77786V5.00006Z" fill="#003399"/>
</svg>
