<svg width="20" height="17" viewBox="0 0 20 17" fill="none" xmlns="http://www.w3.org/2000/svg">
<path d="M0.0099999 3.30579H6.64968V4.97577H0.0099999V3.30579ZM9.16966 11.6354H0V13.3054H9.16966V11.6354ZM2.50997 7.47549H0V9.13547H4.17996H9.99965L8.32967 7.47549H2.50997Z" fill="#669DF6"/>
<path d="M9.99959 5.38579C10.0141 5.28509 10.0647 5.19309 10.1419 5.12688C10.2192 5.06067 10.3179 5.02475 10.4196 5.02579C10.5202 5.02504 10.6176 5.06131 10.6932 5.12769C10.7688 5.19407 10.8173 5.28593 10.8296 5.38579V14.5654C10.8333 14.8821 10.9089 15.1938 11.0507 15.477C11.1925 15.7602 11.3968 16.0075 11.6482 16.2001C11.8996 16.3928 12.1915 16.5257 12.5018 16.589C12.8121 16.6523 13.1328 16.6442 13.4396 16.5654C13.8951 16.4337 14.2947 16.1558 14.5767 15.7745C14.8586 15.3931 15.0072 14.9296 14.9995 14.4554V2.06582C14.9883 1.98785 15.0003 1.90829 15.0341 1.83713C15.0679 1.76597 15.122 1.70638 15.1895 1.66583C15.2564 1.62195 15.3346 1.59857 15.4145 1.59857C15.4945 1.59857 15.5727 1.62195 15.6395 1.66583C15.7071 1.70638 15.7611 1.76597 15.7949 1.83713C15.8287 1.90829 15.8408 1.98785 15.8295 2.06582V11.2255C15.8299 11.5426 15.9031 11.8554 16.0436 12.1398C16.184 12.4241 16.3879 12.6724 16.6395 12.8655C16.8881 13.0665 17.1813 13.205 17.4945 13.2694C17.8077 13.3338 18.1317 13.3221 18.4395 13.2354C18.8968 13.1033 19.2976 12.8239 19.5797 12.4405C19.8618 12.0572 20.0094 11.5913 19.9995 11.1155V8.3155H18.3295V11.2355C18.3407 11.3134 18.3287 11.393 18.2949 11.4642C18.2611 11.5353 18.207 11.5949 18.1395 11.6355C18.0727 11.6793 17.9945 11.7027 17.9145 11.7027C17.8346 11.7027 17.7563 11.6793 17.6895 11.6355C17.622 11.5949 17.5679 11.5353 17.5341 11.4642C17.5003 11.393 17.4883 11.3134 17.4995 11.2355V2.06582C17.4959 1.74913 17.4203 1.43741 17.2785 1.15421C17.1367 0.871017 16.9324 0.623748 16.681 0.43109C16.4296 0.238401 16.1376 0.105392 15.8272 0.0421166C15.5168 -0.021159 15.1961 -0.0130453 14.8893 0.0658443C14.4303 0.198389 14.0283 0.479345 13.746 0.864749C13.4637 1.25015 13.3172 1.71826 13.3293 2.19582V14.5654C13.3405 14.6434 13.3285 14.723 13.2947 14.7941C13.2609 14.8653 13.2068 14.9249 13.1393 14.9654C13.0725 15.0093 12.9943 15.0327 12.9143 15.0327C12.8344 15.0327 12.7561 15.0093 12.6893 14.9654C12.6218 14.9249 12.5677 14.8653 12.5339 14.7941C12.5001 14.723 12.4881 14.6434 12.4993 14.5654V5.39579C12.5016 4.87652 12.3086 4.37537 11.9586 3.99175C11.6086 3.60812 11.1273 3.37004 10.61 3.32473C10.0927 3.27942 9.57725 3.43019 9.16592 3.74713C8.75459 4.06407 8.47741 4.52404 8.38935 5.03579C8.35791 5.18715 8.34117 5.3412 8.33936 5.49578V7.49576L9.99934 9.13574L9.99959 5.38579Z" fill="#4285F4"/>
</svg>
