<svg width="20" height="22" viewBox="0 0 20 22" fill="none" xmlns="http://www.w3.org/2000/svg">
<path fill-rule="evenodd" clip-rule="evenodd" d="M0 3.17145H2.14288V10.9238H0V3.17145ZM4.46428 6.51906H6.60716V10.9238H4.46428V6.51906ZM8.92856 0H11.0714V10.9238H8.92856V0ZM13.3928 6.51906H15.5357V10.9238H13.3928V6.51906ZM17.8571 3.17145H20V10.9238H17.8571V3.17145Z" fill="#669DF6"/>
<path fill-rule="evenodd" clip-rule="evenodd" d="M0 10.9238H2.14288V18.6762H0V10.9238ZM4.46428 10.9238H6.60716V15.3286H4.46428V10.9238ZM8.92856 10.9238H11.0714V21.8476H8.92856V10.9238ZM13.3928 10.9238H15.5357V15.3286H13.3928V10.9238ZM17.8571 10.9238H20V18.6762H17.8571V10.9238Z" fill="#4285F4"/>
</svg>
