<svg width="40" height="36" viewBox="0 0 40 36" fill="none" xmlns="http://www.w3.org/2000/svg">
<path d="M36.8421 29.6471C38.5861 29.6471 40 31.0693 40 32.8235C40 34.4746 38.7476 35.8315 37.1462 35.9855L36.8421 36H3.15789C1.41383 36 0 34.5778 0 32.8235C0 31.1725 1.25239 29.8155 2.85377 29.6616L3.15789 29.6471H36.8421ZM36.8421 14.8235C38.5861 14.8235 40 16.2457 40 18C40 19.7543 38.5861 21.1765 36.8421 21.1765H3.15789C1.41383 21.1765 0 19.7543 0 18C0 16.2457 1.41383 14.8235 3.15789 14.8235H36.8421ZM36.8421 0C38.5861 0 40 1.42215 40 3.17647C40 4.93079 38.5861 6.35294 36.8421 6.35294H3.15789C1.41383 6.35294 0 4.93079 0 3.17647C0 1.42215 1.41383 0 3.15789 0H36.8421Z" fill="white"/>
</svg>
