<svg width="18" height="18" viewBox="0 0 18 18" fill="none" xmlns="http://www.w3.org/2000/svg">
<path d="M15.8577 17.5483C16.8187 17.5483 17.5977 16.7803 17.5977 15.833C17.5977 14.8856 16.8187 14.1177 15.8577 14.1177C14.8967 14.1177 14.1177 14.8856 14.1177 15.833C14.1177 16.7803 14.8967 17.5483 15.8577 17.5483Z" fill="#6BC7DC"/>
<path d="M15.8577 12.8423C16.8187 12.8423 17.5977 12.0744 17.5977 11.127C17.5977 10.1797 16.8187 9.41174 15.8577 9.41174C14.8967 9.41174 14.1177 10.1797 14.1177 11.127C14.1177 12.0744 14.8967 12.8423 15.8577 12.8423Z" fill="#6BC7DC"/>
<path d="M11.1519 17.5483C12.1128 17.5483 12.8919 16.7803 12.8919 15.833C12.8919 14.8856 12.1128 14.1177 11.1519 14.1177C10.1909 14.1177 9.41187 14.8856 9.41187 15.833C9.41187 16.7803 10.1909 17.5483 11.1519 17.5483Z" fill="#6BC7DC"/>
<path d="M6.44581 17.5483C7.40679 17.5483 8.18581 16.7803 8.18581 15.833C8.18581 14.8856 7.40679 14.1177 6.44581 14.1177C5.48484 14.1177 4.70581 14.8856 4.70581 15.833C4.70581 16.7803 5.48484 17.5483 6.44581 17.5483Z" fill="#6BC7DC"/>
<path d="M11.1519 12.8423C12.1128 12.8423 12.8919 12.0744 12.8919 11.127C12.8919 10.1797 12.1128 9.41174 11.1519 9.41174C10.1909 9.41174 9.41187 10.1797 9.41187 11.127C9.41187 12.0744 10.1909 12.8423 11.1519 12.8423Z" fill="#6BC7DC"/>
<path d="M15.8577 8.13652C16.8187 8.13652 17.5977 7.36856 17.5977 6.42123C17.5977 5.4739 16.8187 4.70593 15.8577 4.70593C14.8967 4.70593 14.1177 5.4739 14.1177 6.42123C14.1177 7.36856 14.8967 8.13652 15.8577 8.13652Z" fill="#6BC7DC"/>
<path d="M15.8577 3.43059C16.8187 3.43059 17.5977 2.66262 17.5977 1.71529C17.5977 0.767963 16.8187 0 15.8577 0C14.8967 0 14.1177 0.767963 14.1177 1.71529C14.1177 2.66262 14.8967 3.43059 15.8577 3.43059Z" fill="#6BC7DC"/>
<path d="M11.1519 8.13652C12.1128 8.13652 12.8919 7.36856 12.8919 6.42123C12.8919 5.4739 12.1128 4.70593 11.1519 4.70593C10.1909 4.70593 9.41187 5.4739 9.41187 6.42123C9.41187 7.36856 10.1909 8.13652 11.1519 8.13652Z" fill="#6BC7DC"/>
<path d="M6.44581 12.8423C7.40679 12.8423 8.18581 12.0744 8.18581 11.127C8.18581 10.1797 7.40679 9.41174 6.44581 9.41174C5.48484 9.41174 4.70581 10.1797 4.70581 11.127C4.70581 12.0744 5.48484 12.8423 6.44581 12.8423Z" fill="#6BC7DC"/>
<path d="M1.74 17.5483C2.70098 17.5483 3.48 16.7803 3.48 15.833C3.48 14.8856 2.70098 14.1177 1.74 14.1177C0.779025 14.1177 0 14.8856 0 15.833C0 16.7803 0.779025 17.5483 1.74 17.5483Z" fill="#6BC7DC"/>
</svg>
